<?xml version="1.0" encoding="UTF-8" standalone="no"?>
<!DOCTYPE svg PUBLIC "-//W3C//DTD SVG 1.1//EN"
 "http://www.w3.org/Graphics/SVG/1.1/DTD/svg11.dtd">
<!-- Generated by graphviz version 2.38.0 (20140413.2041)
 -->
<!-- Title: G Pages: 1 -->
<svg width="624pt" height="1426pt"
 viewBox="0.00 0.00 624.26 1426.00" xmlns="http://www.w3.org/2000/svg" xmlns:xlink="http://www.w3.org/1999/xlink">
<g id="graph0" class="graph" transform="scale(1 1) rotate(0) translate(4 1422)">
<title>G</title>
<polygon fill="white" stroke="none" points="-4,4 -4,-1422 620.261,-1422 620.261,4 -4,4"/>
<g id="clust1" class="cluster"><title>cluster_Global</title>
<path fill="none" stroke="gray" d="M20,-8C20,-8 596.261,-8 596.261,-8 602.261,-8 608.261,-14 608.261,-20 608.261,-20 608.261,-1398 608.261,-1398 608.261,-1404 602.261,-1410 596.261,-1410 596.261,-1410 20,-1410 20,-1410 14,-1410 8,-1404 8,-1398 8,-1398 8,-20 8,-20 8,-14 14,-8 20,-8"/>
<text text-anchor="middle" x="308.131" y="-1397.2" font-family="Times,serif" font-size="11.00" fill="gray">Global</text>
</g>
<g id="clust2" class="cluster"><title>cluster_\ianring</title>
<path fill="none" stroke="gray" d="M28,-16C28,-16 588.261,-16 588.261,-16 594.261,-16 600.261,-22 600.261,-28 600.261,-28 600.261,-1371 600.261,-1371 600.261,-1377 594.261,-1383 588.261,-1383 588.261,-1383 28,-1383 28,-1383 22,-1383 16,-1377 16,-1371 16,-1371 16,-28 16,-28 16,-22 22,-16 28,-16"/>
<text text-anchor="middle" x="308.131" y="-1370.2" font-family="Times,serif" font-size="11.00" fill="gray">ianring</text>
</g>
<!-- \\ianring\\DirectionDampAll -->
<g id="node1" class="node"><title>\\ianring\\DirectionDampAll</title>
<polygon fill="none" stroke="black" points="545.863,-1248 424.627,-1248 424.627,-1212 545.863,-1212 545.863,-1248"/>
<text text-anchor="middle" x="485.245" y="-1226.7" font-family="Courier,monospace" font-size="11.00">DirectionDampAll</text>
</g>
<!-- \\ianring\\Direction -->
<g id="node36" class="node"><title>\\ianring\\Direction</title>
<polygon fill="none" stroke="black" points="276.73,-60 200.909,-60 200.909,-24 276.73,-24 276.73,-60"/>
<text text-anchor="middle" x="238.819" y="-38.7" font-family="Courier,monospace" font-size="11.00">Direction</text>
</g>
<!-- \\ianring\\DirectionDampAll&#45;&gt;\\ianring\\Direction -->
<g id="edge1" class="edge"><title>\\ianring\\DirectionDampAll&#45;&gt;\\ianring\\Direction</title>
<path fill="none" stroke="black" d="M424.583,-1227.82C407.132,-1224.11 389.687,-1216.82 378.229,-1203 217.029,-1008.64 453.771,-273.918 306.229,-69 301.159,-61.9582 293.925,-56.7494 286.082,-52.8974"/>
<polygon fill="none" stroke="black" points="287.264,-49.5981 276.688,-48.9703 284.564,-56.0565 287.264,-49.5981"/>
</g>
<!-- \\ianring\\DirectionRehearsal -->
<g id="node2" class="node"><title>\\ianring\\DirectionRehearsal</title>
<polygon fill="none" stroke="black" points="552.565,-1194 417.926,-1194 417.926,-1158 552.565,-1158 552.565,-1194"/>
<text text-anchor="middle" x="485.245" y="-1172.7" font-family="Courier,monospace" font-size="11.00">DirectionRehearsal</text>
</g>
<!-- \\ianring\\DirectionRehearsal&#45;&gt;\\ianring\\Direction -->
<g id="edge2" class="edge"><title>\\ianring\\DirectionRehearsal&#45;&gt;\\ianring\\Direction</title>
<path fill="none" stroke="black" d="M417.698,-1172.13C402.648,-1168.04 388.191,-1160.97 378.229,-1149 224.381,-964.103 447.082,-263.978 306.229,-69 301.148,-61.9662 293.909,-56.761 286.064,-52.9101"/>
<polygon fill="none" stroke="black" points="287.246,-49.6108 276.67,-48.9832 284.546,-56.0692 287.246,-49.6108"/>
</g>
<!-- \\ianring\\Score -->
<g id="node3" class="node"><title>\\ianring\\Score</title>
<polygon fill="none" stroke="black" points="265.819,-1356 211.819,-1356 211.819,-1320 265.819,-1320 265.819,-1356"/>
<text text-anchor="middle" x="238.819" y="-1334.7" font-family="Courier,monospace" font-size="11.00">Score</text>
</g>
<!-- \\ianring\\PMTObject -->
<g id="node11" class="node"><title>\\ianring\\PMTObject</title>
<polygon fill="none" stroke="black" points="99.6156,-708 23.794,-708 23.794,-672 99.6156,-672 99.6156,-708"/>
<text text-anchor="middle" x="61.7048" y="-686.7" font-family="Courier,monospace" font-size="11.00">PMTObject</text>
</g>
<!-- \\ianring\\Score&#45;&gt;\\ianring\\PMTObject -->
<g id="edge3" class="edge"><title>\\ianring\\Score&#45;&gt;\\ianring\\PMTObject</title>
<path fill="none" stroke="black" d="M211.787,-1333.71C197.757,-1330.04 181.336,-1323.3 171.41,-1311 95.9032,-1217.43 69.9334,-827.074 64.0872,-718.266"/>
<polygon fill="none" stroke="black" points="67.5719,-717.879 63.5549,-708.076 60.5814,-718.245 67.5719,-717.879"/>
</g>
<!-- \\ianring\\Articulation -->
<g id="node4" class="node"><title>\\ianring\\Articulation</title>
<polygon fill="none" stroke="black" points="286.532,-1302 191.106,-1302 191.106,-1266 286.532,-1266 286.532,-1302"/>
<text text-anchor="middle" x="238.819" y="-1280.7" font-family="Courier,monospace" font-size="11.00">Articulation</text>
</g>
<!-- \\ianring\\Articulation&#45;&gt;\\ianring\\PMTObject -->
<g id="edge4" class="edge"><title>\\ianring\\Articulation&#45;&gt;\\ianring\\PMTObject</title>
<path fill="none" stroke="black" d="M190.985,-1271.95C183.557,-1268.22 176.62,-1263.35 171.41,-1257 102.177,-1172.61 72.0619,-821.361 64.6181,-718.451"/>
<polygon fill="none" stroke="black" points="68.091,-717.944 63.8939,-708.216 61.1085,-718.438 68.091,-717.944"/>
</g>
<!-- \\ianring\\NoteStem -->
<g id="node5" class="node"><title>\\ianring\\NoteStem</title>
<polygon fill="none" stroke="black" points="273.128,-1248 204.51,-1248 204.51,-1212 273.128,-1212 273.128,-1248"/>
<text text-anchor="middle" x="238.819" y="-1226.7" font-family="Courier,monospace" font-size="11.00">NoteStem</text>
</g>
<!-- \\ianring\\NoteStem&#45;&gt;\\ianring\\PMTObject -->
<g id="edge5" class="edge"><title>\\ianring\\NoteStem&#45;&gt;\\ianring\\PMTObject</title>
<path fill="none" stroke="black" d="M204.17,-1223.25C192.233,-1219.24 179.716,-1212.93 171.41,-1203 108.336,-1127.62 74.3266,-814.431 65.2251,-718.232"/>
<polygon fill="none" stroke="black" points="68.6941,-717.736 64.2836,-708.103 61.7242,-718.384 68.6941,-717.736"/>
</g>
<!-- \\ianring\\NoteBeam -->
<g id="node6" class="node"><title>\\ianring\\NoteBeam</title>
<polygon fill="none" stroke="black" points="273.128,-1194 204.51,-1194 204.51,-1158 273.128,-1158 273.128,-1194"/>
<text text-anchor="middle" x="238.819" y="-1172.7" font-family="Courier,monospace" font-size="11.00">NoteBeam</text>
</g>
<!-- \\ianring\\NoteBeam&#45;&gt;\\ianring\\PMTObject -->
<g id="edge6" class="edge"><title>\\ianring\\NoteBeam&#45;&gt;\\ianring\\PMTObject</title>
<path fill="none" stroke="black" d="M204.294,-1169.14C192.373,-1165.13 179.833,-1158.83 171.41,-1149 114.502,-1082.6 76.889,-807.537 65.9838,-718.177"/>
<polygon fill="none" stroke="black" points="69.4562,-717.737 64.7868,-708.227 62.5063,-718.573 69.4562,-717.737"/>
</g>
<!-- \\ianring\\DirectionHarpPedals -->
<g id="node7" class="node"><title>\\ianring\\DirectionHarpPedals</title>
<polygon fill="none" stroke="black" points="556.166,-1140 414.324,-1140 414.324,-1104 556.166,-1104 556.166,-1140"/>
<text text-anchor="middle" x="485.245" y="-1118.7" font-family="Courier,monospace" font-size="11.00">DirectionHarpPedals</text>
</g>
<!-- \\ianring\\DirectionHarpPedals&#45;&gt;\\ianring\\Direction -->
<g id="edge7" class="edge"><title>\\ianring\\DirectionHarpPedals&#45;&gt;\\ianring\\Direction</title>
<path fill="none" stroke="black" d="M414.434,-1117.16C400.583,-1112.96 387.481,-1106.08 378.229,-1095 231.732,-919.561 440.395,-254.039 306.229,-69 301.136,-61.9751 293.891,-56.774 286.044,-52.9243"/>
<polygon fill="none" stroke="black" points="287.226,-49.6248 276.65,-48.9975 284.527,-56.0833 287.226,-49.6248"/>
</g>
<!-- \\ianring\\DirectionScordatura -->
<g id="node8" class="node"><title>\\ianring\\DirectionScordatura</title>
<polygon fill="none" stroke="black" points="556.166,-1086 414.324,-1086 414.324,-1050 556.166,-1050 556.166,-1086"/>
<text text-anchor="middle" x="485.245" y="-1064.7" font-family="Courier,monospace" font-size="11.00">DirectionScordatura</text>
</g>
<!-- \\ianring\\DirectionScordatura&#45;&gt;\\ianring\\Direction -->
<g id="edge8" class="edge"><title>\\ianring\\DirectionScordatura&#45;&gt;\\ianring\\Direction</title>
<path fill="none" stroke="black" d="M414.466,-1063.13C400.614,-1058.94 387.502,-1052.06 378.229,-1041 239.082,-875.018 433.709,-244.103 306.229,-69 301.122,-61.985 293.871,-56.7884 286.023,-52.94"/>
<polygon fill="none" stroke="black" points="287.204,-49.6404 276.628,-49.0134 284.505,-56.099 287.204,-49.6404"/>
</g>
<!-- \\ianring\\Instrument -->
<g id="node9" class="node"><title>\\ianring\\Instrument</title>
<polygon fill="none" stroke="black" points="279.83,-1140 197.809,-1140 197.809,-1104 279.83,-1104 279.83,-1140"/>
<text text-anchor="middle" x="238.819" y="-1118.7" font-family="Courier,monospace" font-size="11.00">Instrument</text>
</g>
<!-- \\ianring\\Instrument&#45;&gt;\\ianring\\PMTObject -->
<g id="edge9" class="edge"><title>\\ianring\\Instrument&#45;&gt;\\ianring\\PMTObject</title>
<path fill="none" stroke="black" d="M197.54,-1112.43C187.859,-1108.44 178.33,-1102.84 171.41,-1095 72.6276,-983.15 62.3421,-790.765 62.1661,-718.522"/>
<polygon fill="none" stroke="black" points="65.6666,-718.387 62.2083,-708.373 58.6666,-718.358 65.6666,-718.387"/>
</g>
<!-- \\ianring\\DirectionPercussion -->
<g id="node10" class="node"><title>\\ianring\\DirectionPercussion</title>
<polygon fill="none" stroke="black" points="556.166,-1032 414.324,-1032 414.324,-996 556.166,-996 556.166,-1032"/>
<text text-anchor="middle" x="485.245" y="-1010.7" font-family="Courier,monospace" font-size="11.00">DirectionPercussion</text>
</g>
<!-- \\ianring\\DirectionPercussion&#45;&gt;\\ianring\\Direction -->
<g id="edge10" class="edge"><title>\\ianring\\DirectionPercussion&#45;&gt;\\ianring\\Direction</title>
<path fill="none" stroke="black" d="M414.502,-1009.1C400.647,-1004.91 387.526,-998.042 378.229,-987 246.429,-830.473 427.024,-234.168 306.229,-69 301.107,-61.9961 293.849,-56.8045 285.999,-52.9576"/>
<polygon fill="none" stroke="black" points="287.18,-49.6579 276.604,-49.0313 284.481,-56.1166 287.18,-49.6579"/>
</g>
<!-- \\ianring\\DirectionSegno -->
<g id="node12" class="node"><title>\\ianring\\DirectionSegno</title>
<polygon fill="none" stroke="black" points="539.661,-978 430.829,-978 430.829,-942 539.661,-942 539.661,-978"/>
<text text-anchor="middle" x="485.245" y="-956.7" font-family="Courier,monospace" font-size="11.00">DirectionSegno</text>
</g>
<!-- \\ianring\\DirectionSegno&#45;&gt;\\ianring\\Direction -->
<g id="edge11" class="edge"><title>\\ianring\\DirectionSegno&#45;&gt;\\ianring\\Direction</title>
<path fill="none" stroke="black" d="M430.825,-958.837C411.453,-955.571 391.173,-948.296 378.229,-933 253.775,-785.925 420.342,-224.236 306.229,-69 301.09,-62.0086 293.824,-56.8227 285.972,-52.9774"/>
<polygon fill="none" stroke="black" points="287.152,-49.6776 276.576,-49.0514 284.453,-56.1364 287.152,-49.6776"/>
</g>
<!-- \\ianring\\DirectionEyeglasses -->
<g id="node13" class="node"><title>\\ianring\\DirectionEyeglasses</title>
<polygon fill="none" stroke="black" points="556.166,-924 414.324,-924 414.324,-888 556.166,-888 556.166,-924"/>
<text text-anchor="middle" x="485.245" y="-902.7" font-family="Courier,monospace" font-size="11.00">DirectionEyeglasses</text>
</g>
<!-- \\ianring\\DirectionEyeglasses&#45;&gt;\\ianring\\Direction -->
<g id="edge12" class="edge"><title>\\ianring\\DirectionEyeglasses&#45;&gt;\\ianring\\Direction</title>
<path fill="none" stroke="black" d="M414.313,-900.948C400.555,-896.749 387.522,-889.921 378.229,-879 261.118,-741.374 413.662,-214.307 306.229,-69 301.07,-62.0228 293.796,-56.8433 285.941,-53"/>
<polygon fill="none" stroke="black" points="287.121,-49.7 276.545,-49.0743 284.423,-56.1589 287.121,-49.7"/>
</g>
<!-- \\ianring\\DirectionBracket -->
<g id="node14" class="node"><title>\\ianring\\DirectionBracket</title>
<polygon fill="none" stroke="black" points="545.863,-870 424.627,-870 424.627,-834 545.863,-834 545.863,-870"/>
<text text-anchor="middle" x="485.245" y="-848.7" font-family="Courier,monospace" font-size="11.00">DirectionBracket</text>
</g>
<!-- \\ianring\\DirectionBracket&#45;&gt;\\ianring\\Direction -->
<g id="edge13" class="edge"><title>\\ianring\\DirectionBracket&#45;&gt;\\ianring\\Direction</title>
<path fill="none" stroke="black" d="M424.565,-849.539C407.22,-845.803 389.842,-838.561 378.229,-825 268.458,-696.819 406.984,-204.382 306.229,-69 301.102,-62.1108 293.914,-56.9739 286.149,-53.145"/>
<polygon fill="none" stroke="black" points="287.431,-49.8873 276.857,-49.2247 284.71,-56.3368 287.431,-49.8873"/>
</g>
<!-- \\ianring\\Scale -->
<g id="node15" class="node"><title>\\ianring\\Scale</title>
<polygon fill="none" stroke="black" points="265.819,-1086 211.819,-1086 211.819,-1050 265.819,-1050 265.819,-1086"/>
<text text-anchor="middle" x="238.819" y="-1064.7" font-family="Courier,monospace" font-size="11.00">Scale</text>
</g>
<!-- \\ianring\\Scale&#45;&gt;\\ianring\\PMTObject -->
<g id="edge14" class="edge"><title>\\ianring\\Scale&#45;&gt;\\ianring\\PMTObject</title>
<path fill="none" stroke="black" d="M211.711,-1063.03C198.008,-1059.17 181.928,-1052.46 171.41,-1041 84.7669,-946.583 67.1658,-784.22 63.603,-718.679"/>
<polygon fill="none" stroke="black" points="67.0813,-718.132 63.115,-708.308 60.089,-718.461 67.0813,-718.132"/>
</g>
<!-- \\ianring\\DirectionCoda -->
<g id="node16" class="node"><title>\\ianring\\DirectionCoda</title>
<polygon fill="none" stroke="black" points="536.059,-816 434.431,-816 434.431,-780 536.059,-780 536.059,-816"/>
<text text-anchor="middle" x="485.245" y="-794.7" font-family="Courier,monospace" font-size="11.00">DirectionCoda</text>
</g>
<!-- \\ianring\\DirectionCoda&#45;&gt;\\ianring\\Direction -->
<g id="edge15" class="edge"><title>\\ianring\\DirectionCoda&#45;&gt;\\ianring\\Direction</title>
<path fill="none" stroke="black" d="M434.266,-797.231C413.957,-794.224 392.062,-787.035 378.229,-771 173.359,-533.521 494.392,-319.924 306.229,-69 301.077,-62.1295 293.878,-57.0011 286.109,-53.1749"/>
<polygon fill="none" stroke="black" points="287.391,-49.9169 276.816,-49.2551 284.67,-56.3665 287.391,-49.9169"/>
</g>
<!-- \\ianring\\BarlineRepeat -->
<g id="node17" class="node"><title>\\ianring\\BarlineRepeat</title>
<polygon fill="none" stroke="black" points="289.633,-1032 188.005,-1032 188.005,-996 289.633,-996 289.633,-1032"/>
<text text-anchor="middle" x="238.819" y="-1010.7" font-family="Courier,monospace" font-size="11.00">BarlineRepeat</text>
</g>
<!-- \\ianring\\BarlineRepeat&#45;&gt;\\ianring\\PMTObject -->
<g id="edge16" class="edge"><title>\\ianring\\BarlineRepeat&#45;&gt;\\ianring\\PMTObject</title>
<path fill="none" stroke="black" d="M187.746,-999.129C181.731,-995.832 176.077,-991.835 171.41,-987 96.5341,-909.434 72.5682,-776.14 65.4647,-718.23"/>
<polygon fill="none" stroke="black" points="68.909,-717.544 64.2923,-708.008 61.9546,-718.342 68.909,-717.544"/>
</g>
<!-- \\ianring\\BarlineEnding -->
<g id="node18" class="node"><title>\\ianring\\BarlineEnding</title>
<polygon fill="none" stroke="black" points="289.633,-978 188.005,-978 188.005,-942 289.633,-942 289.633,-978"/>
<text text-anchor="middle" x="238.819" y="-956.7" font-family="Courier,monospace" font-size="11.00">BarlineEnding</text>
</g>
<!-- \\ianring\\BarlineEnding&#45;&gt;\\ianring\\PMTObject -->
<g id="edge17" class="edge"><title>\\ianring\\BarlineEnding&#45;&gt;\\ianring\\PMTObject</title>
<path fill="none" stroke="black" d="M187.72,-944.638C181.78,-941.426 176.154,-937.583 171.41,-933 108.393,-872.12 79.094,-768.137 68.1334,-718.284"/>
<polygon fill="none" stroke="black" points="71.4997,-717.285 66.0108,-708.223 64.6505,-718.73 71.4997,-717.285"/>
</g>
<!-- \\ianring\\DirectionImage -->
<g id="node19" class="node"><title>\\ianring\\DirectionImage</title>
<polygon fill="none" stroke="black" points="539.661,-762 430.829,-762 430.829,-726 539.661,-726 539.661,-762"/>
<text text-anchor="middle" x="485.245" y="-740.7" font-family="Courier,monospace" font-size="11.00">DirectionImage</text>
</g>
<!-- \\ianring\\DirectionImage&#45;&gt;\\ianring\\Direction -->
<g id="edge18" class="edge"><title>\\ianring\\DirectionImage&#45;&gt;\\ianring\\Direction</title>
<path fill="none" stroke="black" d="M430.767,-742.604C411.507,-739.291 391.319,-732.045 378.229,-717 188.022,-498.392 481.053,-300.095 306.229,-69 301.048,-62.1513 293.835,-57.033 286.063,-53.2098"/>
<polygon fill="none" stroke="black" points="287.343,-49.9515 276.769,-49.2906 284.623,-56.4014 287.343,-49.9515"/>
</g>
<!-- \\ianring\\Clef -->
<g id="node20" class="node"><title>\\ianring\\Clef</title>
<polygon fill="none" stroke="black" points="265.819,-924 211.819,-924 211.819,-888 265.819,-888 265.819,-924"/>
<text text-anchor="middle" x="238.819" y="-902.7" font-family="Courier,monospace" font-size="11.00">Clef</text>
</g>
<!-- \\ianring\\Clef&#45;&gt;\\ianring\\PMTObject -->
<g id="edge19" class="edge"><title>\\ianring\\Clef&#45;&gt;\\ianring\\PMTObject</title>
<path fill="none" stroke="black" d="M211.685,-899.758C198.469,-895.584 182.85,-888.984 171.41,-879 119.877,-834.03 86.9357,-758.387 72.0137,-717.772"/>
<polygon fill="none" stroke="black" points="75.2688,-716.48 68.6078,-708.241 68.677,-718.835 75.2688,-716.48"/>
</g>
<!-- \\ianring\\Pitch -->
<g id="node21" class="node"><title>\\ianring\\Pitch</title>
<polygon fill="none" stroke="black" points="265.819,-870 211.819,-870 211.819,-834 265.819,-834 265.819,-870"/>
<text text-anchor="middle" x="238.819" y="-848.7" font-family="Courier,monospace" font-size="11.00">Pitch</text>
</g>
<!-- \\ianring\\Pitch&#45;&gt;\\ianring\\PMTObject -->
<g id="edge20" class="edge"><title>\\ianring\\Pitch&#45;&gt;\\ianring\\PMTObject</title>
<path fill="none" stroke="black" d="M211.652,-844.783C198.734,-840.403 183.393,-833.913 171.41,-825 131.148,-795.054 97.2156,-746.842 78.4491,-716.865"/>
<polygon fill="none" stroke="black" points="81.3365,-714.879 73.1217,-708.188 75.3711,-718.541 81.3365,-714.879"/>
</g>
<!-- \\ianring\\DirectionDynamics -->
<g id="node22" class="node"><title>\\ianring\\DirectionDynamics</title>
<polygon fill="none" stroke="black" points="549.464,-708 421.027,-708 421.027,-672 549.464,-672 549.464,-708"/>
<text text-anchor="middle" x="485.245" y="-686.7" font-family="Courier,monospace" font-size="11.00">DirectionDynamics</text>
</g>
<!-- \\ianring\\DirectionDynamics&#45;&gt;\\ianring\\Direction -->
<g id="edge21" class="edge"><title>\\ianring\\DirectionDynamics&#45;&gt;\\ianring\\Direction</title>
<path fill="none" stroke="black" d="M420.901,-686.463C404.876,-682.506 389.137,-675.412 378.229,-663 202.673,-463.25 467.724,-280.28 306.229,-69 301.014,-62.1772 293.786,-57.0708 286.008,-53.2513"/>
<polygon fill="none" stroke="black" points="287.288,-49.9926 276.714,-49.3329 284.569,-56.4428 287.288,-49.9926"/>
</g>
<!-- \\ianring\\Chord -->
<g id="node23" class="node"><title>\\ianring\\Chord</title>
<polygon fill="none" stroke="black" points="265.819,-816 211.819,-816 211.819,-780 265.819,-780 265.819,-816"/>
<text text-anchor="middle" x="238.819" y="-794.7" font-family="Courier,monospace" font-size="11.00">Chord</text>
</g>
<!-- \\ianring\\Chord&#45;&gt;\\ianring\\PMTObject -->
<g id="edge22" class="edge"><title>\\ianring\\Chord&#45;&gt;\\ianring\\PMTObject</title>
<path fill="none" stroke="black" d="M211.564,-789.088C199.057,-784.404 184.095,-778.15 171.41,-771 142.63,-754.778 112.73,-731.994 91.5896,-714.72"/>
<polygon fill="none" stroke="black" points="93.5941,-711.836 83.6572,-708.16 89.1333,-717.23 93.5941,-711.836"/>
</g>
<!-- \\ianring\\Layer -->
<g id="node24" class="node"><title>\\ianring\\Layer</title>
<polygon fill="none" stroke="black" points="265.819,-762 211.819,-762 211.819,-726 265.819,-726 265.819,-762"/>
<text text-anchor="middle" x="238.819" y="-740.7" font-family="Courier,monospace" font-size="11.00">Layer</text>
</g>
<!-- \\ianring\\Layer&#45;&gt;\\ianring\\PMTObject -->
<g id="edge23" class="edge"><title>\\ianring\\Layer&#45;&gt;\\ianring\\PMTObject</title>
<path fill="none" stroke="black" d="M211.603,-735.916C184.625,-727.597 142.034,-714.463 109.302,-704.369"/>
<polygon fill="none" stroke="black" points="110.075,-700.945 99.4879,-701.343 108.013,-707.634 110.075,-700.945"/>
</g>
<!-- \\ianring\\DirectionDamp -->
<g id="node25" class="node"><title>\\ianring\\DirectionDamp</title>
<polygon fill="none" stroke="black" points="536.059,-654 434.431,-654 434.431,-618 536.059,-618 536.059,-654"/>
<text text-anchor="middle" x="485.245" y="-632.7" font-family="Courier,monospace" font-size="11.00">DirectionDamp</text>
</g>
<!-- \\ianring\\DirectionDamp&#45;&gt;\\ianring\\Direction -->
<g id="edge24" class="edge"><title>\\ianring\\DirectionDamp&#45;&gt;\\ianring\\Direction</title>
<path fill="none" stroke="black" d="M434.225,-634.987C414.033,-631.921 392.241,-624.752 378.229,-609 217.309,-428.09 454.411,-260.484 306.229,-69 300.973,-62.2084 293.726,-57.1164 285.943,-53.3013"/>
<polygon fill="none" stroke="black" points="287.222,-50.0421 276.647,-49.3838 284.503,-56.4927 287.222,-50.0421"/>
</g>
<!-- \\ianring\\DirectionAccordionRegistration -->
<g id="node26" class="node"><title>\\ianring\\DirectionAccordionRegistration</title>
<polygon fill="none" stroke="black" points="592.277,-600 378.213,-600 378.213,-564 592.277,-564 592.277,-600"/>
<text text-anchor="middle" x="485.245" y="-578.7" font-family="Courier,monospace" font-size="11.00">DirectionAccordionRegistration</text>
</g>
<!-- \\ianring\\DirectionAccordionRegistration&#45;&gt;\\ianring\\Direction -->
<g id="edge25" class="edge"><title>\\ianring\\DirectionAccordionRegistration&#45;&gt;\\ianring\\Direction</title>
<path fill="none" stroke="black" d="M387.916,-563.674C384.413,-561.121 381.156,-558.243 378.229,-555 231.923,-392.906 441.116,-240.713 306.229,-69 300.924,-62.2468 293.654,-57.1725 285.864,-53.3627"/>
<polygon fill="none" stroke="black" points="287.142,-50.1029 276.567,-49.4463 284.424,-56.5539 287.142,-50.1029"/>
</g>
<!-- \\ianring\\DirectionStringMute -->
<g id="node27" class="node"><title>\\ianring\\DirectionStringMute</title>
<polygon fill="none" stroke="black" points="556.166,-546 414.324,-546 414.324,-510 556.166,-510 556.166,-546"/>
<text text-anchor="middle" x="485.245" y="-524.7" font-family="Courier,monospace" font-size="11.00">DirectionStringMute</text>
</g>
<!-- \\ianring\\DirectionStringMute&#45;&gt;\\ianring\\Direction -->
<g id="edge26" class="edge"><title>\\ianring\\DirectionStringMute&#45;&gt;\\ianring\\Direction</title>
<path fill="none" stroke="black" d="M414.378,-522.239C400.785,-518.059 387.804,-511.418 378.229,-501 246.509,-357.69 427.848,-220.976 306.229,-69 300.977,-62.4369 293.874,-57.4576 286.262,-53.6831"/>
<polygon fill="none" stroke="black" points="287.386,-50.3575 276.815,-49.6511 284.638,-56.7957 287.386,-50.3575"/>
</g>
<!-- \\ianring\\Tuplet -->
<g id="node28" class="node"><title>\\ianring\\Tuplet</title>
<polygon fill="none" stroke="black" points="266.427,-708 211.212,-708 211.212,-672 266.427,-672 266.427,-708"/>
<text text-anchor="middle" x="238.819" y="-686.7" font-family="Courier,monospace" font-size="11.00">Tuplet</text>
</g>
<!-- \\ianring\\Tuplet&#45;&gt;\\ianring\\PMTObject -->
<g id="edge27" class="edge"><title>\\ianring\\Tuplet&#45;&gt;\\ianring\\PMTObject</title>
<path fill="none" stroke="black" d="M210.841,-690C183.918,-690 142.005,-690 109.623,-690"/>
<polygon fill="none" stroke="black" points="109.475,-686.5 99.4754,-690 109.475,-693.5 109.475,-686.5"/>
</g>
<!-- \\ianring\\DirectionPedal -->
<g id="node29" class="node"><title>\\ianring\\DirectionPedal</title>
<polygon fill="none" stroke="black" points="539.661,-492 430.829,-492 430.829,-456 539.661,-456 539.661,-492"/>
<text text-anchor="middle" x="485.245" y="-470.7" font-family="Courier,monospace" font-size="11.00">DirectionPedal</text>
</g>
<!-- \\ianring\\DirectionPedal&#45;&gt;\\ianring\\Direction -->
<g id="edge28" class="edge"><title>\\ianring\\DirectionPedal&#45;&gt;\\ianring\\Direction</title>
<path fill="none" stroke="black" d="M430.817,-471.964C411.797,-468.542 391.763,-461.388 378.229,-447 261.053,-322.43 414.619,-201.286 306.229,-69 300.902,-62.498 293.763,-57.5474 286.139,-53.7823"/>
<polygon fill="none" stroke="black" points="287.26,-50.4556 276.689,-49.753 284.515,-56.8947 287.26,-50.4556"/>
</g>
<!-- \\ianring\\Tie -->
<g id="node30" class="node"><title>\\ianring\\Tie</title>
<polygon fill="none" stroke="black" points="265.819,-654 211.819,-654 211.819,-618 265.819,-618 265.819,-654"/>
<text text-anchor="middle" x="238.819" y="-632.7" font-family="Courier,monospace" font-size="11.00">Tie</text>
</g>
<!-- \\ianring\\Tie&#45;&gt;\\ianring\\PMTObject -->
<g id="edge29" class="edge"><title>\\ianring\\Tie&#45;&gt;\\ianring\\PMTObject</title>
<path fill="none" stroke="black" d="M211.603,-644.084C184.625,-652.403 142.034,-665.537 109.302,-675.631"/>
<polygon fill="none" stroke="black" points="108.013,-672.366 99.4879,-678.657 110.075,-679.055 108.013,-672.366"/>
</g>
<!-- \\ianring\\Time -->
<g id="node31" class="node"><title>\\ianring\\Time</title>
<polygon fill="none" stroke="black" points="265.819,-600 211.819,-600 211.819,-564 265.819,-564 265.819,-600"/>
<text text-anchor="middle" x="238.819" y="-578.7" font-family="Courier,monospace" font-size="11.00">Time</text>
</g>
<!-- \\ianring\\Time&#45;&gt;\\ianring\\PMTObject -->
<g id="edge30" class="edge"><title>\\ianring\\Time&#45;&gt;\\ianring\\PMTObject</title>
<path fill="none" stroke="black" d="M211.564,-590.912C199.057,-595.596 184.095,-601.85 171.41,-609 142.63,-625.222 112.73,-648.006 91.5896,-665.28"/>
<polygon fill="none" stroke="black" points="89.1333,-662.77 83.6572,-671.84 93.5941,-668.164 89.1333,-662.77"/>
</g>
<!-- \\ianring\\Arpeggiate -->
<g id="node32" class="node"><title>\\ianring\\Arpeggiate</title>
<polygon fill="none" stroke="black" points="279.83,-546 197.809,-546 197.809,-510 279.83,-510 279.83,-546"/>
<text text-anchor="middle" x="238.819" y="-524.7" font-family="Courier,monospace" font-size="11.00">Arpeggiate</text>
</g>
<!-- \\ianring\\Arpeggiate&#45;&gt;\\ianring\\PMTObject -->
<g id="edge31" class="edge"><title>\\ianring\\Arpeggiate&#45;&gt;\\ianring\\PMTObject</title>
<path fill="none" stroke="black" d="M197.793,-540.458C188.643,-544.314 179.299,-549.132 171.41,-555 131.148,-584.946 97.2156,-633.158 78.4491,-663.135"/>
<polygon fill="none" stroke="black" points="75.3711,-661.459 73.1217,-671.812 81.3365,-665.121 75.3711,-661.459"/>
</g>
<!-- \\ianring\\Note -->
<g id="node33" class="node"><title>\\ianring\\Note</title>
<polygon fill="none" stroke="black" points="265.819,-492 211.819,-492 211.819,-456 265.819,-456 265.819,-492"/>
<text text-anchor="middle" x="238.819" y="-470.7" font-family="Courier,monospace" font-size="11.00">Note</text>
</g>
<!-- \\ianring\\Note&#45;&gt;\\ianring\\PMTObject -->
<g id="edge32" class="edge"><title>\\ianring\\Note&#45;&gt;\\ianring\\PMTObject</title>
<path fill="none" stroke="black" d="M211.685,-480.242C198.469,-484.416 182.85,-491.016 171.41,-501 119.877,-545.97 86.9357,-621.613 72.0137,-662.228"/>
<polygon fill="none" stroke="black" points="68.677,-661.165 68.6078,-671.759 75.2688,-663.52 68.677,-661.165"/>
</g>
<!-- \\ianring\\Part -->
<g id="node34" class="node"><title>\\ianring\\Part</title>
<polygon fill="none" stroke="black" points="265.819,-438 211.819,-438 211.819,-402 265.819,-402 265.819,-438"/>
<text text-anchor="middle" x="238.819" y="-416.7" font-family="Courier,monospace" font-size="11.00">Part</text>
</g>
<!-- \\ianring\\Part&#45;&gt;\\ianring\\PMTObject -->
<g id="edge33" class="edge"><title>\\ianring\\Part&#45;&gt;\\ianring\\PMTObject</title>
<path fill="none" stroke="black" d="M211.585,-425.678C198.18,-429.715 182.419,-436.364 171.41,-447 108.393,-507.88 79.094,-611.863 68.1334,-661.716"/>
<polygon fill="none" stroke="black" points="64.6505,-661.27 66.0108,-671.777 71.4997,-662.715 64.6505,-661.27"/>
</g>
<!-- \\ianring\\DirectionPrincipalVoice -->
<g id="node35" class="node"><title>\\ianring\\DirectionPrincipalVoice</title>
<polygon fill="none" stroke="black" points="569.07,-438 401.42,-438 401.42,-402 569.07,-402 569.07,-438"/>
<text text-anchor="middle" x="485.245" y="-416.7" font-family="Courier,monospace" font-size="11.00">DirectionPrincipalVoice</text>
</g>
<!-- \\ianring\\DirectionPrincipalVoice&#45;&gt;\\ianring\\Direction -->
<g id="edge34" class="edge"><title>\\ianring\\DirectionPrincipalVoice&#45;&gt;\\ianring\\Direction</title>
<path fill="none" stroke="black" d="M401.363,-408.813C392.752,-404.898 384.774,-399.749 378.229,-393 275.536,-287.104 401.446,-181.667 306.229,-69 300.803,-62.5798 293.618,-57.6679 285.979,-53.9154"/>
<polygon fill="none" stroke="black" points="287.097,-50.5871 276.525,-49.8896 284.354,-57.0276 287.097,-50.5871"/>
</g>
<!-- \\ianring\\Direction&#45;&gt;\\ianring\\PMTObject -->
<g id="edge35" class="edge"><title>\\ianring\\Direction&#45;&gt;\\ianring\\PMTObject</title>
<path fill="none" stroke="black" d="M200.868,-49.6869C189.894,-53.7082 178.835,-59.7986 171.41,-69 95.9032,-162.57 69.9334,-552.926 64.0872,-661.734"/>
<polygon fill="none" stroke="black" points="60.5814,-661.755 63.5549,-671.924 67.5719,-662.121 60.5814,-661.755"/>
</g>
<!-- \\ianring\\Measure -->
<g id="node37" class="node"><title>\\ianring\\Measure</title>
<polygon fill="none" stroke="black" points="270.027,-384 207.611,-384 207.611,-348 270.027,-348 270.027,-384"/>
<text text-anchor="middle" x="238.819" y="-362.7" font-family="Courier,monospace" font-size="11.00">Measure</text>
</g>
<!-- \\ianring\\Measure&#45;&gt;\\ianring\\PMTObject -->
<g id="edge36" class="edge"><title>\\ianring\\Measure&#45;&gt;\\ianring\\PMTObject</title>
<path fill="none" stroke="black" d="M207.611,-372.498C195.012,-376.549 181.091,-382.971 171.41,-393 96.5341,-470.566 72.5682,-603.86 65.4647,-661.77"/>
<polygon fill="none" stroke="black" points="61.9546,-661.658 64.2923,-671.992 68.909,-662.456 61.9546,-661.658"/>
</g>
<!-- \\ianring\\Slur -->
<g id="node38" class="node"><title>\\ianring\\Slur</title>
<polygon fill="none" stroke="black" points="265.819,-330 211.819,-330 211.819,-294 265.819,-294 265.819,-330"/>
<text text-anchor="middle" x="238.819" y="-308.7" font-family="Courier,monospace" font-size="11.00">Slur</text>
</g>
<!-- \\ianring\\Slur&#45;&gt;\\ianring\\PMTObject -->
<g id="edge37" class="edge"><title>\\ianring\\Slur&#45;&gt;\\ianring\\PMTObject</title>
<path fill="none" stroke="black" d="M211.711,-316.97C198.008,-320.832 181.928,-327.537 171.41,-339 84.7669,-433.417 67.1658,-595.78 63.603,-661.321"/>
<polygon fill="none" stroke="black" points="60.089,-661.539 63.115,-671.692 67.0813,-661.868 60.089,-661.539"/>
</g>
<!-- \\ianring\\Sound -->
<g id="node39" class="node"><title>\\ianring\\Sound</title>
<polygon fill="none" stroke="black" points="512.245,-384 458.245,-384 458.245,-348 512.245,-348 512.245,-384"/>
<text text-anchor="middle" x="485.245" y="-362.7" font-family="Courier,monospace" font-size="11.00">Sound</text>
</g>
<!-- \\ianring\\DirectionMetronome -->
<g id="node40" class="node"><title>\\ianring\\DirectionMetronome</title>
<polygon fill="none" stroke="black" points="306.139,-276 171.5,-276 171.5,-240 306.139,-240 306.139,-276"/>
<text text-anchor="middle" x="238.819" y="-254.7" font-family="Courier,monospace" font-size="11.00">DirectionMetronome</text>
</g>
<!-- \\ianring\\DirectionMetronome&#45;&gt;\\ianring\\PMTObject -->
<g id="edge38" class="edge"><title>\\ianring\\DirectionMetronome&#45;&gt;\\ianring\\PMTObject</title>
<path fill="none" stroke="black" d="M181.551,-276.108C177.821,-278.694 174.376,-281.642 171.41,-285 72.6276,-396.85 62.3421,-589.235 62.1661,-661.478"/>
<polygon fill="none" stroke="black" points="58.6666,-661.642 62.2083,-671.627 65.6666,-661.613 58.6666,-661.642"/>
</g>
<!-- \\ianring\\DirectionOther -->
<g id="node41" class="node"><title>\\ianring\\DirectionOther</title>
<polygon fill="none" stroke="black" points="539.661,-330 430.829,-330 430.829,-294 539.661,-294 539.661,-330"/>
<text text-anchor="middle" x="485.245" y="-308.7" font-family="Courier,monospace" font-size="11.00">DirectionOther</text>
</g>
<!-- \\ianring\\DirectionOther&#45;&gt;\\ianring\\Direction -->
<g id="edge39" class="edge"><title>\\ianring\\DirectionOther&#45;&gt;\\ianring\\Direction</title>
<path fill="none" stroke="black" d="M430.982,-308.82C412.32,-305.229 392.484,-298.259 378.229,-285 304.133,-216.081 375.442,-142.821 306.229,-69 300.663,-63.0629 293.607,-58.3973 286.186,-54.7409"/>
<polygon fill="none" stroke="black" points="287.243,-51.3849 276.675,-50.6295 284.465,-57.8102 287.243,-51.3849"/>
</g>
<!-- \\ianring\\TimeModification -->
<g id="node42" class="node"><title>\\ianring\\TimeModification</title>
<polygon fill="none" stroke="black" points="545.863,-276 424.627,-276 424.627,-240 545.863,-240 545.863,-276"/>
<text text-anchor="middle" x="485.245" y="-254.7" font-family="Courier,monospace" font-size="11.00">TimeModification</text>
</g>
<!-- \\ianring\\DirectionWords -->
<g id="node43" class="node"><title>\\ianring\\DirectionWords</title>
<polygon fill="none" stroke="black" points="539.661,-222 430.829,-222 430.829,-186 539.661,-186 539.661,-222"/>
<text text-anchor="middle" x="485.245" y="-200.7" font-family="Courier,monospace" font-size="11.00">DirectionWords</text>
</g>
<!-- \\ianring\\DirectionWords&#45;&gt;\\ianring\\Direction -->
<g id="edge40" class="edge"><title>\\ianring\\DirectionWords&#45;&gt;\\ianring\\Direction</title>
<path fill="none" stroke="black" d="M430.847,-198.25C412.907,-194.365 393.575,-187.865 378.229,-177 331.146,-143.665 350.924,-105.475 306.229,-69 300.329,-64.1851 293.456,-60.1294 286.411,-56.745"/>
<polygon fill="none" stroke="black" points="287.339,-53.3313 276.774,-52.5379 284.539,-59.7466 287.339,-53.3313"/>
</g>
<!-- \\ianring\\Accidental -->
<g id="node44" class="node"><title>\\ianring\\Accidental</title>
<polygon fill="none" stroke="black" points="279.83,-222 197.809,-222 197.809,-186 279.83,-186 279.83,-222"/>
<text text-anchor="middle" x="238.819" y="-200.7" font-family="Courier,monospace" font-size="11.00">Accidental</text>
</g>
<!-- \\ianring\\Accidental&#45;&gt;\\ianring\\PMTObject -->
<g id="edge41" class="edge"><title>\\ianring\\Accidental&#45;&gt;\\ianring\\PMTObject</title>
<path fill="none" stroke="black" d="M197.727,-213.295C187.928,-217.293 178.294,-222.968 171.41,-231 114.502,-297.397 76.889,-572.463 65.9838,-661.823"/>
<polygon fill="none" stroke="black" points="62.5063,-661.427 64.7868,-671.773 69.4562,-662.263 62.5063,-661.427"/>
</g>
<!-- \\ianring\\DirectionWedge -->
<g id="node45" class="node"><title>\\ianring\\DirectionWedge</title>
<polygon fill="none" stroke="black" points="539.661,-168 430.829,-168 430.829,-132 539.661,-132 539.661,-168"/>
<text text-anchor="middle" x="485.245" y="-146.7" font-family="Courier,monospace" font-size="11.00">DirectionWedge</text>
</g>
<!-- \\ianring\\DirectionWedge&#45;&gt;\\ianring\\Direction -->
<g id="edge42" class="edge"><title>\\ianring\\DirectionWedge&#45;&gt;\\ianring\\Direction</title>
<path fill="none" stroke="black" d="M430.775,-140.704C413.497,-136.577 394.59,-130.831 378.229,-123 342.149,-105.73 341.044,-88.6954 306.229,-69 299.899,-65.4188 292.998,-62.0657 286.117,-59.0231"/>
<polygon fill="none" stroke="black" points="287.375,-55.7549 276.802,-55.0744 284.643,-62.1997 287.375,-55.7549"/>
</g>
<!-- \\ianring\\DirectionDashes -->
<g id="node46" class="node"><title>\\ianring\\DirectionDashes</title>
<polygon fill="none" stroke="black" points="542.761,-114 427.729,-114 427.729,-78 542.761,-78 542.761,-114"/>
<text text-anchor="middle" x="485.245" y="-92.7" font-family="Courier,monospace" font-size="11.00">DirectionDashes</text>
</g>
<!-- \\ianring\\DirectionDashes&#45;&gt;\\ianring\\Direction -->
<g id="edge43" class="edge"><title>\\ianring\\DirectionDashes&#45;&gt;\\ianring\\Direction</title>
<path fill="none" stroke="black" d="M427.555,-83.4756C384.781,-74.0259 326.806,-61.2176 286.648,-52.3457"/>
<polygon fill="none" stroke="black" points="287.362,-48.9192 276.843,-50.1794 285.852,-55.7543 287.362,-48.9192"/>
</g>
<!-- \\ianring\\Key -->
<g id="node47" class="node"><title>\\ianring\\Key</title>
<polygon fill="none" stroke="black" points="265.819,-168 211.819,-168 211.819,-132 265.819,-132 265.819,-168"/>
<text text-anchor="middle" x="238.819" y="-146.7" font-family="Courier,monospace" font-size="11.00">Key</text>
</g>
<!-- \\ianring\\Key&#45;&gt;\\ianring\\PMTObject -->
<g id="edge44" class="edge"><title>\\ianring\\Key&#45;&gt;\\ianring\\PMTObject</title>
<path fill="none" stroke="black" d="M211.621,-154.512C197.718,-158.244 181.473,-164.973 171.41,-177 108.336,-252.384 74.3266,-565.569 65.2251,-661.768"/>
<polygon fill="none" stroke="black" points="61.7242,-661.616 64.2836,-671.897 68.6941,-662.264 61.7242,-661.616"/>
</g>
<!-- \\ianring\\Barline -->
<g id="node48" class="node"><title>\\ianring\\Barline</title>
<polygon fill="none" stroke="black" points="270.027,-114 207.611,-114 207.611,-78 270.027,-78 270.027,-114"/>
<text text-anchor="middle" x="238.819" y="-92.7" font-family="Courier,monospace" font-size="11.00">Barline</text>
</g>
<!-- \\ianring\\Barline&#45;&gt;\\ianring\\PMTObject -->
<g id="edge45" class="edge"><title>\\ianring\\Barline&#45;&gt;\\ianring\\PMTObject</title>
<path fill="none" stroke="black" d="M207.495,-101.581C194.562,-105.477 180.409,-112.031 171.41,-123 102.177,-207.393 72.0619,-558.639 64.6181,-661.549"/>
<polygon fill="none" stroke="black" points="61.1085,-661.562 63.8939,-671.784 68.091,-662.056 61.1085,-661.562"/>
</g>
<!-- \\ianring\\DirectionOctaveShift -->
<g id="node49" class="node"><title>\\ianring\\DirectionOctaveShift</title>
<polygon fill="none" stroke="black" points="559.267,-60 411.224,-60 411.224,-24 559.267,-24 559.267,-60"/>
<text text-anchor="middle" x="485.245" y="-38.7" font-family="Courier,monospace" font-size="11.00">DirectionOctaveShift</text>
</g>
<!-- \\ianring\\DirectionOctaveShift&#45;&gt;\\ianring\\Direction -->
<g id="edge46" class="edge"><title>\\ianring\\DirectionOctaveShift&#45;&gt;\\ianring\\Direction</title>
<path fill="none" stroke="black" d="M410.909,-42C370.767,-42 322.201,-42 287.084,-42"/>
<polygon fill="none" stroke="black" points="286.642,-38.5001 276.642,-42 286.642,-45.5001 286.642,-38.5001"/>
</g>
</g>
</svg>
