<?xml version="1.0" encoding="UTF-8" standalone="no"?>
<!DOCTYPE svg PUBLIC "-//W3C//DTD SVG 1.1//EN" "http://www.w3.org/Graphics/SVG/1.1/DTD/svg11.dtd">
<svg width="100%" height="100%" viewBox="0 0 473 1437" version="1.1" xmlns="http://www.w3.org/2000/svg" xmlns:xlink="http://www.w3.org/1999/xlink" xml:space="preserve" xmlns:serif="http://www.serif.com/" style="fill-rule:evenodd;clip-rule:evenodd;stroke-linecap:round;stroke-linejoin:round;stroke-miterlimit:1.5;">
    <g transform="matrix(1,0,0,1,-11.4561,-11.8227)">
        <g transform="matrix(0.308573,0,0,0.308573,-167.599,267.155)">
            <circle cx="1315.08" cy="2063.28" r="244.844" style="fill:rgb(255,0,0);stroke:black;stroke-width:18px;"/>
        </g>
        <g transform="matrix(0.308573,0,0,0.308573,-167.13,457.796)">
            <circle cx="1315.08" cy="2063.28" r="244.844" style="fill:rgb(255,0,0);stroke:black;stroke-width:18px;"/>
        </g>
        <g transform="matrix(0.308573,0,0,0.308573,-165.612,646.806)">
            <circle cx="1315.08" cy="2063.28" r="244.844" style="fill:rgb(255,0,0);stroke:black;stroke-width:18px;"/>
        </g>
        <g transform="matrix(0.308573,0,0,0.308573,-168.938,-68.1021)">
            <circle cx="1315.08" cy="2063.28" r="244.844" style="fill:rgb(255,0,0);stroke:black;stroke-width:18px;"/>
        </g>
        <g transform="matrix(0.308573,0,0,0.308573,-172.063,-258.711)">
            <circle cx="1315.08" cy="2063.28" r="244.844" style="fill:rgb(255,0,0);stroke:black;stroke-width:18px;"/>
        </g>
        <g transform="matrix(0.308573,0,0,0.308573,-170.48,-450.628)">
            <circle cx="1315.08" cy="2063.28" r="244.844" style="fill:rgb(255,0,0);stroke:black;stroke-width:18px;"/>
        </g>
        <g transform="matrix(1.15429,0,0,1.1457,-2409.62,-2387.1)">
            <ellipse cx="2161.22" cy="2181.32" rx="34.87" ry="85.047" style="fill:rgb(255,0,0);stroke:black;stroke-width:4.83px;"/>
        </g>
        <g transform="matrix(0.789382,0,0,0.904365,-1355.5,-1676.18)">
            <ellipse cx="2161.22" cy="2181.32" rx="34.87" ry="85.047" style="fill:rgb(255,0,0);stroke:black;stroke-width:6.55px;"/>
        </g>
        <g transform="matrix(0.789382,0,0,0.904365,-1315.09,-1825.01)">
            <ellipse cx="2161.22" cy="2181.32" rx="34.87" ry="85.047" style="fill:rgb(255,0,0);stroke:black;stroke-width:6.55px;"/>
        </g>
        <g transform="matrix(0.789382,0,0,0.904365,-1254.98,-1697.18)">
            <ellipse cx="2161.22" cy="2181.32" rx="34.87" ry="85.047" style="fill:rgb(255,0,0);stroke:black;stroke-width:6.55px;"/>
        </g>
        <g transform="matrix(1,0,0,1,-2054.19,-1740.56)">
            <path d="M2145.72,2457.45C2145.72,2449.66 2139.39,2443.33 2131.6,2443.33L2103.36,2443.33C2095.57,2443.33 2089.24,2449.66 2089.24,2457.45L2089.24,2549.01C2089.24,2556.8 2095.57,2563.13 2103.36,2563.13L2131.6,2563.13C2139.39,2563.13 2145.72,2556.8 2145.72,2549.01L2145.72,2457.45Z" style="fill:rgb(255,0,0);stroke:black;stroke-width:5.56px;"/>
        </g>
        <g transform="matrix(1,0,0,1,-2054.19,-1610.56)">
            <path d="M2145.72,2457.45C2145.72,2449.66 2139.39,2443.33 2131.6,2443.33L2103.36,2443.33C2095.57,2443.33 2089.24,2449.66 2089.24,2457.45L2089.24,2549.01C2089.24,2556.8 2095.57,2563.13 2103.36,2563.13L2131.6,2563.13C2139.39,2563.13 2145.72,2556.8 2145.72,2549.01L2145.72,2457.45Z" style="fill:rgb(255,0,0);stroke:black;stroke-width:5.56px;"/>
        </g>
        <g transform="matrix(1,0,0,1,-2054.19,-1480.56)">
            <path d="M2145.72,2457.45C2145.72,2449.66 2139.39,2443.33 2131.6,2443.33L2103.36,2443.33C2095.57,2443.33 2089.24,2449.66 2089.24,2457.45L2089.24,2549.01C2089.24,2556.8 2095.57,2563.13 2103.36,2563.13L2131.6,2563.13C2139.39,2563.13 2145.72,2556.8 2145.72,2549.01L2145.72,2457.45Z" style="fill:rgb(255,0,0);stroke:black;stroke-width:5.56px;"/>
        </g>
        <g transform="matrix(1,0,0,1,-2059.74,-1948.91)">
            <path d="M2380.46,2603.31L2532.91,2602.91C2532.91,2602.91 2518.98,2527.25 2452.82,2526.87C2386.67,2526.48 2380.46,2603.31 2380.46,2603.31Z" style="fill:rgb(255,0,0);stroke:black;stroke-width:5.56px;"/>
        </g>
        <g transform="matrix(1,0,0,1,-2059.74,-1948.91)">
            <path d="M2379.28,2614.3C2379.28,2614.3 2371.81,2629.41 2372.45,2653.03C2373.09,2677.1 2381.03,2686.79 2381.03,2686.79L2439.55,2686.31L2438.08,2614.74L2379.28,2614.3Z" style="fill:rgb(255,0,0);stroke:black;stroke-width:5.56px;"/>
        </g>
        <g transform="matrix(-1.42076,0,0,1,3855.85,-1948.91)">
            <path d="M2379.28,2614.3C2379.28,2614.3 2374.59,2629.41 2375.22,2653.03C2375.87,2677.1 2381.03,2686.79 2381.03,2686.79L2436.97,2686.86L2438.08,2614.74L2379.28,2614.3Z" style="fill:rgb(255,0,0);stroke:black;stroke-width:4.52px;"/>
        </g>
        <g transform="matrix(1,0,0,1,-2059.74,-1948.91)">
            <path d="M2386.86,2698.63L2527.34,2700.11C2527.34,2700.11 2506.86,2756.98 2453.95,2756.81C2401.05,2756.64 2386.86,2698.63 2386.86,2698.63Z" style="fill:rgb(255,0,0);stroke:black;stroke-width:5.56px;"/>
        </g>
        <g transform="matrix(0.824784,0,0,1,-1666.33,-1868.91)">
            <path d="M2037.58,3232.18L2204.86,3231.8C2204.86,3231.8 2184.19,3164.15 2123.76,3163.94C2063.33,3163.73 2037.58,3232.18 2037.58,3232.18Z" style="fill:rgb(255,0,0);stroke:black;stroke-width:6.06px;"/>
        </g>
        <g transform="matrix(0.824784,0,0,1,-1666.33,-1868.91)">
            <path d="M2038.78,3249.6L2205.33,3250C2205.33,3250 2182.72,3314.1 2120.53,3314.2C2058.35,3314.31 2038.78,3249.6 2038.78,3249.6Z" style="fill:rgb(255,0,0);stroke:black;stroke-width:6.06px;"/>
        </g>
    </g>
</svg>
